<?xml version="1.0" standalone="no"?>
<!DOCTYPE svg PUBLIC "-//W3C//DTD SVG 20010904//EN"
 "http://www.w3.org/TR/2001/REC-SVG-20010904/DTD/svg10.dtd">
<svg version="1.0" xmlns="http://www.w3.org/2000/svg"
 width="300.000000pt" height="300.000000pt" viewBox="0 0 300.000000 300.000000"
 preserveAspectRatio="xMidYMid meet">
<metadata>
Created by potrace 1.14, written by Peter Selinger 2001-2017
</metadata>
<g transform="translate(0.000000,300.000000) scale(0.100000,-0.100000)"
fill="#000000" stroke="none">
<path d="M1870 2978 c0 -13 -8 -36 -17 -53 -19 -36 -21 -132 -3 -190 6 -22 11
-49 11 -59 0 -24 10 -13 39 39 26 46 35 145 18 196 -30 90 -48 115 -48 67z"/>
<path d="M1679 2800 c-1 -8 -1 -19 1 -25 1 -5 3 -23 4 -40 4 -39 13 -70 33
-116 11 -27 25 -41 52 -51 l38 -15 -2 41 c-1 23 -2 50 -3 62 -2 27 -70 116
-83 109 -5 -4 -9 -2 -9 2 0 5 -7 18 -15 29 -11 15 -15 16 -16 4z"/>
<path d="M2554 2800 c-11 -4 -28 -20 -37 -34 -10 -14 -34 -30 -58 -38 -27 -8
-48 -22 -59 -41 -10 -15 -33 -36 -51 -46 -41 -22 -52 -65 -20 -76 25 -8 25 -8
6 -60 -23 -66 -55 -126 -70 -131 -17 -7 -56 -70 -48 -78 4 -3 15 -6 25 -6 24
0 23 -11 -2 -33 -19 -16 -21 -16 -40 3 -11 11 -24 21 -30 21 -5 1 -16 2 -22 3
-7 0 -14 10 -16 21 -2 11 -10 37 -17 57 -13 34 -13 40 11 82 14 25 31 46 37
46 7 0 5 5 -4 10 -30 17 -127 -19 -169 -63 -35 -36 -38 -38 -45 -18 -7 24 -56
61 -79 61 -19 0 -20 5 -6 31 7 13 8 25 1 37 -6 9 -11 13 -12 7 -1 -5 -2 -17
-3 -25 -2 -8 -4 -26 -5 -40 -2 -23 -4 -21 -22 15 -10 22 -19 34 -19 27 0 -10
-4 -10 -15 2 -19 18 -60 13 -122 -15 -24 -10 -55 -19 -69 -19 -31 0 -56 -25
-89 -91 -13 -26 -33 -57 -44 -68 -11 -11 -23 -31 -27 -45 -5 -21 -8 -23 -34
-13 -16 6 -31 19 -33 29 -3 10 -13 21 -22 25 -21 7 -51 -27 -59 -68 -3 -15
-11 -33 -19 -40 -7 -7 -11 -24 -9 -38 3 -15 1 -23 -3 -19 -5 5 -9 18 -11 30
-6 60 -44 111 -84 116 -32 5 -42 16 -64 72 -10 25 -24 58 -30 74 l-13 30 -31
-64 c-18 -35 -32 -72 -32 -82 0 -16 -3 -17 -21 -7 -12 6 -35 13 -51 16 -27 4
-29 2 -26 -23 2 -21 -2 -29 -16 -32 -16 -3 -18 1 -14 37 2 23 1 41 -3 41 -4 0
-9 13 -12 29 -9 42 -74 106 -142 137 -33 15 -63 33 -67 38 -12 18 -20 -1 -9
-22 6 -11 11 -44 12 -73 0 -30 6 -83 11 -119 6 -36 10 -66 9 -68 -2 -3 14 -23
47 -57 13 -14 18 -25 12 -25 -6 0 -8 -5 -4 -12 5 -7 3 -8 -5 -3 -19 11 -113 7
-126 -7 -6 -6 91 -82 118 -91 9 -4 17 -13 17 -22 0 -23 1 -29 11 -47 7 -12 6
-18 -2 -18 -7 0 -9 -10 -7 -25 5 -26 0 -30 -62 -40 -19 -3 -36 -8 -39 -10 -8
-9 115 -130 148 -146 14 -7 27 -14 29 -15 1 -1 0 -9 -4 -18 -6 -15 -8 -15 -23
-2 -9 9 -26 17 -37 19 -36 7 -71 25 -77 40 -3 9 -27 28 -54 43 -26 16 -54 34
-61 41 -7 7 -15 13 -18 13 -6 0 5 -81 14 -94 19 -32 11 -40 -37 -36 -13 1 -41
-6 -63 -16 -29 -13 -41 -15 -50 -6 -7 7 -16 12 -21 12 -9 0 -5 -69 7 -105 3
-11 2 -26 -3 -34 -8 -12 -18 -10 -65 9 -70 28 -133 29 -208 2 -31 -11 -59 -17
-62 -14 -3 3 -6 -1 -6 -9 0 -9 12 -16 31 -17 17 -1 45 -10 62 -19 38 -20 106
-19 165 1 23 8 42 13 42 9 0 -3 7 0 15 7 13 10 14 6 12 -29 -1 -22 -5 -41 -10
-41 -15 0 -119 -110 -106 -112 8 0 21 -2 29 -3 8 -1 19 1 25 4 5 2 19 6 32 7
19 2 23 -2 24 -27 1 -26 3 -38 8 -79 2 -14 42 -38 74 -44 50 -9 66 -17 61 -31
-9 -21 14 -53 55 -79 43 -27 70 -34 88 -23 7 5 13 4 13 -2 0 -5 -16 -19 -35
-31 -40 -25 -44 -44 -14 -60 11 -7 19 -17 16 -23 -6 -17 26 -70 50 -82 31 -16
95 -87 85 -97 -4 -4 -26 10 -48 32 -49 52 -66 60 -119 66 -35 4 -47 1 -67 -18
-36 -34 -39 -53 -15 -89 34 -50 98 -59 168 -23 36 18 69 -4 62 -40 -3 -14 4
-56 15 -93 16 -54 20 -93 19 -184 -1 -86 2 -121 12 -133 10 -12 15 -50 17
-119 1 -56 5 -101 8 -99 3 1 10 2 15 2 6 0 18 13 27 29 12 20 44 42 100 70 45
22 85 45 89 50 3 6 14 11 23 11 29 0 138 126 149 173 19 82 21 114 8 164 -4
16 1 33 16 51 l22 27 -7 -25 c-13 -46 -18 -90 -9 -90 16 1 83 71 102 107 21
42 25 37 36 -36 4 -33 16 -55 43 -83 20 -21 41 -38 46 -38 5 0 19 -11 32 -25
13 -14 27 -25 32 -25 18 0 91 -77 97 -103 14 -56 32 -45 36 23 2 25 12 63 22
84 11 22 21 51 23 65 2 15 6 37 8 51 3 14 5 31 5 37 1 7 21 -2 47 -22 49 -37
51 -38 104 -35 48 3 49 7 12 36 -38 30 -40 40 -8 39 20 -1 76 -51 76 -68 0 -9
63 -77 71 -77 11 0 19 32 24 92 3 48 9 58 54 105 29 30 51 46 51 38 0 -8 4
-15 8 -15 4 0 7 12 6 27 0 15 5 39 13 53 7 14 16 40 19 58 4 22 12 32 24 32
10 0 34 7 54 15 20 8 36 12 36 8 0 -5 4 -3 8 3 4 5 24 20 45 33 20 12 37 28
37 35 0 15 -58 47 -118 66 -26 8 -51 25 -63 42 -16 22 -28 28 -57 28 l-37 1
40 19 c32 15 36 20 23 25 -21 8 -24 43 -4 51 25 10 26 42 1 48 -13 3 -44 26
-70 52 -27 26 -53 43 -61 40 -23 -9 -16 12 10 29 13 9 27 24 31 33 4 11 -3 9
-22 -8 -15 -14 -32 -31 -36 -37 -4 -7 -21 -13 -37 -13 -27 0 -29 2 -20 24 5
13 7 26 4 28 -2 3 7 10 20 17 13 7 29 24 35 37 14 31 39 31 47 -1 3 -14 10
-23 14 -20 5 3 10 0 12 -6 3 -8 10 -6 21 5 12 12 24 15 39 10 13 -4 33 -7 45
-5 11 1 24 -3 28 -8 3 -6 2 -11 -3 -11 -5 0 -27 -12 -48 -26 -21 -15 -50 -30
-64 -35 l-25 -7 27 -1 c16 -1 27 -4 26 -8 -4 -16 33 -73 47 -73 8 0 15 -4 15
-8 0 -10 60 -32 88 -32 23 0 74 44 81 70 9 32 8 76 -2 89 -6 7 -21 17 -34 22
-13 5 -23 16 -23 25 0 13 6 15 30 11 26 -6 30 -4 30 16 0 13 -9 40 -20 62 -11
21 -18 40 -17 41 2 2 14 8 27 14 23 10 23 10 -7 6 -57 -9 -65 0 -37 42 13 20
31 46 39 57 10 13 13 30 9 50 -6 32 -53 84 -82 90 -41 8 -83 39 -96 69 -8 20
-26 38 -46 46 -25 11 -31 18 -27 37 2 12 0 23 -4 23 -5 0 -3 11 3 25 18 40 43
30 28 -11 -9 -23 8 -54 31 -54 5 0 10 0 12 0 1 0 23 -7 48 -14 59 -18 70 -11
63 42 -5 40 6 57 21 32 11 -18 35 -11 35 11 0 38 -32 78 -82 99 -26 11 -48 23
-48 26 0 3 5 2 10 -1 6 -3 10 -2 10 4 0 6 10 19 21 30 16 14 20 27 15 45 -7
29 23 56 61 56 13 0 23 4 23 9 0 13 -25 20 -48 15 -12 -4 -22 0 -25 10 -7 18
1 46 13 46 5 0 16 8 26 17 15 16 17 16 29 -1 16 -22 27 -7 31 41 1 26 -2 33
-12 29 -8 -3 -14 -2 -14 3 0 16 64 19 81 5 22 -20 31 -17 27 8 -2 15 -13 26
-33 32 -16 6 -32 11 -34 13 -2 1 5 13 16 27 19 24 20 24 32 4 16 -26 52 -20
68 12 13 25 15 27 57 29 37 2 23 40 -18 49 -17 3 -34 5 -38 4 -5 -1 -8 3 -8 9
0 5 -5 7 -10 4 -6 -4 -10 -12 -9 -18 3 -27 -2 -44 -13 -44 -7 0 -21 -4 -30 -8
-11 -4 -18 -3 -18 4 0 7 6 14 14 17 8 3 20 18 26 34 7 16 22 32 34 36 33 10
85 76 59 73 -5 0 -17 -4 -29 -9z m-455 -484 c9 -10 8 -15 -4 -20 -21 -7 -45 3
-45 20 0 18 34 18 49 0z m-69 -16 c0 -5 -9 -14 -20 -20 -11 -6 -20 -17 -20
-25 0 -8 -5 -15 -11 -15 -11 0 -3 37 13 58 12 14 38 16 38 2z m-590 -138 c-11
-2 -20 -8 -20 -13 0 -5 -5 -9 -12 -9 -6 0 -1 11 12 25 18 19 26 22 32 13 5 -9
1 -14 -12 -16z m720 23 c0 -5 -32 -71 -45 -94 l-13 -23 -21 21 c-34 34 -22 70
30 89 21 8 49 12 49 7z m-636 -44 c15 -14 38 -36 50 -49 12 -12 38 -30 57 -40
25 -13 34 -24 34 -43 1 -26 -1 -27 -50 -26 -27 0 -57 -3 -66 -7 -13 -5 -21 4
-38 40 -12 25 -20 49 -17 51 3 3 0 15 -6 27 -16 28 -18 87 -4 79 6 -4 24 -18
40 -32z m-639 -18 l18 -28 -21 19 c-12 11 -22 23 -22 28 0 14 7 9 25 -19z
m1105 13 c6 -8 18 -12 27 -9 13 5 14 0 8 -28 -4 -19 -11 -38 -16 -43 -10 -11
28 -56 47 -56 6 0 19 -11 27 -24 l16 -24 -47 17 c-70 26 -110 25 -114 -2 -2
-13 7 -32 20 -46 13 -13 21 -30 18 -38 -3 -8 3 -24 14 -35 11 -12 20 -29 20
-37 -1 -13 -4 -12 -15 3 -8 11 -25 21 -37 23 -24 4 -92 52 -84 60 8 8 67 -8
61 -17 -3 -5 -1 -11 5 -15 14 -9 12 16 -5 45 -8 14 -14 35 -15 47 0 15 -11 28
-31 38 -29 16 -30 17 -15 40 9 13 14 30 11 37 -3 7 11 24 30 37 19 13 32 27
29 32 -9 15 33 10 46 -5z m-190 -40 c0 -2 -9 -6 -20 -9 -11 -3 -18 -1 -14 4 5
9 34 13 34 5z m-29 -116 l24 -19 -35 9 c-19 6 -36 10 -37 10 -2 0 -3 5 -3 10
0 16 26 11 51 -10z m423 -59 c4 -1 5 -16 2 -35 -4 -20 -2 -37 4 -41 5 -3 10
-13 10 -22 0 -13 -5 -12 -25 7 -18 17 -23 30 -19 47 4 14 2 23 -5 23 -6 0 -11
6 -11 14 0 8 8 13 18 11 9 -2 21 -4 26 -4z m-248 -150 c0 -11 -4 -17 -8 -15
-4 3 -8 12 -8 20 0 8 4 14 8 14 4 0 8 -9 8 -19z m174 -1 c11 -7 12 -12 3 -21
-6 -6 -9 -17 -7 -24 4 -9 -3 -11 -21 -7 -16 3 -30 0 -35 -7 -9 -16 -60 -4 -60
14 0 7 10 15 21 18 15 4 20 11 16 21 -5 13 1 16 31 16 20 0 44 -5 52 -10z
m-1201 -117 c6 6 11 7 11 1 0 -5 -9 -15 -20 -22 -28 -17 -19 -28 31 -36 64
-10 126 -42 133 -68 5 -18 8 -20 15 -9 11 17 23 -1 15 -22 -3 -9 3 -28 12 -43
l18 -27 -24 14 c-14 7 -27 14 -30 14 -20 4 -89 44 -105 61 -11 11 -35 31 -52
43 -18 12 -33 27 -33 32 0 6 -7 17 -15 25 -24 25 -19 45 9 34 15 -5 27 -5 35
3z m31 -133 c0 -15 -44 -1 -57 17 -22 29 -14 33 22 12 19 -12 35 -25 35 -29z
m1180 -10 c-20 -12 -30 -3 -30 28 l0 26 23 -22 c18 -19 20 -24 7 -32z m-1130
-34 c30 -12 54 -27 53 -32 -1 -5 7 -11 18 -11 40 -3 79 -29 94 -60 9 -18 20
-35 25 -38 17 -11 11 -25 -10 -22 -11 2 -38 20 -59 41 -42 41 -87 50 -132 25
-13 -6 -36 -14 -51 -15 -16 -2 -42 -10 -58 -19 -36 -19 -40 -19 -40 0 0 8 5
15 10 15 6 0 10 7 10 15 0 11 12 15 49 15 45 0 111 25 111 41 0 25 -75 45 -97
27 -20 -16 -41 -2 -38 24 1 13 3 24 4 26 2 5 57 -11 111 -32z m-210 -196 c0
-5 -5 -10 -11 -10 -5 0 -7 5 -4 10 3 6 8 10 11 10 2 0 4 -4 4 -10z m465 -20
c3 -5 -1 -10 -9 -10 -9 0 -16 5 -16 10 0 6 4 10 9 10 6 0 13 -4 16 -10z m-512
-27 c-19 -31 -45 -54 -52 -47 -4 4 59 74 66 74 2 0 -4 -12 -14 -27z m716 -190
c7 -21 13 -46 15 -56 1 -10 8 -22 16 -27 9 -6 7 -10 -9 -15 -12 -4 -28 -2 -35
4 -7 6 -16 7 -21 3 -4 -4 -3 2 2 13 6 11 9 41 8 68 -2 57 7 61 24 10z m106
-91 c-22 -5 -29 3 -21 25 7 17 8 17 22 -2 13 -18 13 -20 -1 -23z m-755 -113
c0 -10 -4 -19 -10 -19 -5 0 -10 5 -10 10 0 6 -3 9 -7 9 -22 -4 -25 3 -8 15 23
17 35 12 35 -15z"/>
<path d="M1932 2661 c-5 -3 -20 -29 -33 -56 l-24 -50 22 1 c13 0 26 4 30 7 3
4 13 7 22 7 17 0 81 68 81 87 0 13 -79 16 -98 4z"/>
<path d="M1863 2635 c0 -8 4 -12 9 -9 5 3 6 10 3 15 -9 13 -12 11 -12 -6z"/>
<path d="M1850 2590 c0 -11 4 -20 8 -20 4 0 8 9 8 20 0 11 -4 20 -8 20 -4 0
-8 -9 -8 -20z"/>
<path d="M2173 2465 c-23 -10 -31 -19 -27 -30 4 -9 14 -15 23 -14 33 3 42 -2
52 -28 8 -20 13 -24 17 -13 3 8 14 21 24 28 20 14 21 51 3 64 -16 12 -57 9
-92 -7z"/>
<path d="M2446 2453 c-4 -13 -13 -20 -20 -17 -15 6 -34 -41 -28 -69 5 -25 22
-11 22 19 0 14 10 34 21 43 12 10 20 24 17 32 -3 10 -7 7 -12 -8z"/>
<path d="M2332 2318 c-22 -22 -13 -48 20 -63 51 -21 65 2 28 45 -11 13 -20 19
-20 14 0 -5 -4 -3 -8 3 -6 10 -11 10 -20 1z"/>
<path d="M2787 2105 c-38 -13 -110 -82 -101 -96 2 -4 1 -10 -4 -13 -11 -6 -7
-44 7 -81 7 -16 10 -41 6 -55 -5 -24 -5 -24 10 -6 11 15 26 20 60 19 25 -1 47
3 51 8 3 5 9 7 13 4 12 -7 68 47 79 76 13 33 7 109 -10 126 -25 24 -72 32
-111 18z"/>
<path d="M2467 2012 c-46 -51 -51 -121 -11 -183 30 -47 40 -79 24 -79 -6 0
-10 -6 -10 -14 0 -8 -16 -28 -35 -45 -35 -31 -35 -31 -10 -31 19 0 25 5 25 23
0 16 3 18 9 9 7 -11 18 -10 57 8 27 13 51 26 54 30 7 10 74 44 82 42 4 -1 19
3 33 8 19 7 25 6 25 -4 0 -39 97 -71 128 -43 24 22 27 74 5 86 -23 11 -102 8
-111 -6 -8 -12 -73 -35 -80 -28 -3 3 2 13 11 23 10 10 17 23 17 28 0 4 -13 -5
-28 -21 -32 -35 -115 -95 -131 -95 -6 0 -11 -4 -11 -9 0 -12 -39 -21 -45 -11
-3 5 -2 10 2 12 5 1 24 23 44 48 20 25 47 56 60 70 56 60 79 122 59 159 -21
40 -134 56 -163 23z"/>
<path d="M2567 1687 c-17 -11 -35 -25 -39 -31 -4 -6 -33 -16 -65 -23 l-58 -11
49 3 c59 4 87 -8 110 -46 9 -16 25 -29 35 -29 9 0 21 -4 27 -10 14 -14 83 -15
116 -2 18 7 30 21 34 39 3 15 7 34 10 41 2 6 -1 12 -6 12 -6 0 -10 5 -10 11 0
30 -75 69 -129 67 -23 -1 -56 -10 -74 -21z"/>
<path d="M2368 1613 c7 -3 16 -2 19 1 4 3 -2 6 -13 5 -11 0 -14 -3 -6 -6z"/>
<path d="M2352 903 c-13 -3 -46 -18 -73 -33 -27 -16 -60 -31 -73 -33 -14 -1
-28 -6 -32 -9 -3 -4 2 -5 13 -4 10 2 54 -15 98 -36 73 -36 85 -39 140 -34 73
6 92 10 101 19 4 4 15 7 24 7 9 0 27 11 40 25 19 20 21 27 10 40 -7 8 -16 12
-21 9 -5 -3 -9 -1 -9 4 0 27 -151 58 -218 45z"/>
<path d="M655 764 c-48 -55 -50 -56 -65 -36 -22 27 -74 52 -120 58 -33 4 -43
0 -69 -25 -37 -36 -40 -71 -9 -106 26 -31 65 -28 141 9 52 25 56 23 27 -14
-11 -14 -20 -29 -20 -35 0 -18 -67 -79 -125 -115 -59 -36 -95 -82 -97 -122 -3
-62 2 -78 30 -92 31 -16 55 -8 84 28 19 22 57 131 64 179 2 16 7 34 11 40 4 7
8 14 8 17 0 8 68 110 71 107 1 -1 4 -33 5 -72 5 -97 26 -134 76 -135 14 0 28
10 37 28 23 45 7 111 -39 160 -47 49 -47 56 -8 106 19 25 39 46 43 46 4 0 10
7 14 15 10 28 -9 14 -59 -41z"/>
<path d="M2170 808 c0 -3 48 -53 106 -111 58 -59 102 -111 99 -117 -3 -5 -2
-10 2 -10 5 0 8 -17 7 -37 -3 -48 8 -74 44 -111 56 -57 190 -110 207 -82 4 7
-1 39 -11 73 -32 106 -152 206 -209 175 -14 -8 -45 10 -45 27 0 5 -45 50 -164
164 -20 19 -36 32 -36 29z"/>
<path d="M2140 713 c-26 -43 -32 -114 -15 -157 22 -52 97 -136 122 -136 34 0
44 134 16 215 -13 36 -77 115 -94 115 -4 0 -17 -17 -29 -37z"/>
</g>
</svg>
